<svg aria-hidden="true" style="position: absolute; width: 0; height: 0; overflow: hidden;" version="1.1" xmlns="http://www.w3.org/2000/svg" xmlns:xlink="http://www.w3.org/1999/xlink">
<defs>
<symbol id="icon-bg-logo-1" viewBox="0 0 38 32">
<path d="M0.080 32c4.986 0 9.924-0.828 14.531-2.436s8.793-3.965 12.318-6.937c3.526-2.971 6.323-6.499 8.231-10.381s2.89-8.044 2.89-12.246h-37.97v32z"></path>
</symbol>
<symbol id="icon-Polygon-1" viewBox="0 0 52 32">
<path d="M26 32l-25.981-30h51.962l-25.981 30z"></path>
</symbol>
<symbol id="icon-Rectangle-7" viewBox="0 0 34 32">
<path d="M26 32l-25.981-30h51.962l-25.981 30z"></path>
</symbol>
<symbol id="icon-search-icon" viewBox="0 0 32 32">
<path d="M4.024 4.024c2.595-2.595 6.045-4.024 9.715-4.024s7.12 1.429 9.715 4.024c2.595 2.595 4.024 6.045 4.024 9.715 0 3.355-1.195 6.526-3.383 9.029l7.63 7.63c0.366 0.366 0.366 0.961 0 1.327-0.183 0.183-0.423 0.275-0.664 0.275s-0.48-0.092-0.663-0.275l-7.63-7.63c-2.502 2.188-5.673 3.383-9.029 3.383-3.67 0-7.12-1.429-9.715-4.024s-4.024-6.045-4.024-9.715 1.429-7.12 4.024-9.715zM5.351 22.127c4.625 4.625 12.15 4.625 16.775 0s4.625-12.15 0-16.775c-2.313-2.313-5.35-3.469-8.388-3.469s-6.075 1.157-8.388 3.469c-4.625 4.625-4.625 12.15 0 16.775z"></path>
</symbol>
<symbol id="icon-Vector-1" viewBox="0 0 24 32">
<path d="M0 0.038h23.232v8.065h-14.892v4.032h12.372v7.652h-12.372v4.078h14.892v8.065h-23.232v-31.892z"></path>
</symbol>
<symbol id="icon-Vector-2" viewBox="0 0 29 32">
<path d="M0.127 0h28.807l-14.403 31.222-14.403-31.222zM14.53 27.358l11.9-25.733h-23.757l11.856 25.733z"></path>
</symbol>
<symbol id="icon-Vector-3" viewBox="0 0 25 32">
<path d="M0.458 0.038h23.232v8.065h-14.892v4.032h12.372v7.652h-12.372v4.078h14.892v8.065h-23.232v-31.892z"></path>
</symbol>
<symbol id="icon-Vector-4" viewBox="0 0 26 32">
<path d="M0.42 31.884v-31.884h1.787l22.27 21.674v-21.674h1.695v31.892l-25.752-0.008z"></path>
</symbol>
<symbol id="icon-Vector-5" viewBox="0 0 28 32">
<path d="M12.939 31.93v-23.827h-12.051v-8.065h25.752v8.065h-12.051v23.827h-1.65z"></path>
</symbol>
<symbol id="icon-Vector-6" viewBox="0 0 24 32">
<path d="M13.128 0.732c1.932 0 3.469 0.293 4.611 0.878 1.312 0.64 2.414 1.641 3.176 2.886s1.153 2.681 1.127 4.14c0.008 1.407-0.388 2.786-1.142 3.974-0.766 1.218-1.842 2.211-3.118 2.876 1.584 0.559 2.973 1.566 3.996 2.898 1.062 1.318 1.636 2.962 1.625 4.655 0.011 1.479-0.392 2.932-1.164 4.194-0.755 1.253-1.821 2.289-3.096 3.008-0.677 0.363-1.401 0.629-2.152 0.791-0.79 0.176-1.844 0.263-3.162 0.263h-13.525v-30.563h12.822z"></path>
</symbol>
<symbol id="icon-Vector-7" viewBox="0 0 15 32">
<path d="M1.23 24.41c1.778 4.937 5.432 7.405 10.962 7.405h1.746v-30.45h-1.746c-4.277 0-7.433 1.686-9.47 5.057-1.711 2.877-2.567 6.538-2.568 10.985 0 2.641 0.358 4.976 1.075 7.003z"></path>
</symbol>
<symbol id="icon-Vector-8" viewBox="0 0 15 32">
<path d="M13.106 8.741c-1.776-4.937-5.43-7.405-10.964-7.406h-1.746v30.45h1.746c4.277 0 7.433-1.686 9.47-5.057 1.716-2.878 2.574-6.539 2.574-10.985-0.004-2.644-0.364-4.978-1.080-7.002z"></path>
</symbol>
<symbol id="icon-Vector-9" viewBox="0 0 26 32">
<path d="M4.261 28.072c-2.121-1.851-3.168-4.628-3.141-8.33h6.607c-0.027 1.54 0.432 2.716 1.378 3.527s2.27 1.216 3.972 1.216c1.405 0 2.513-0.23 3.324-0.689s1.216-1.162 1.216-2.108c0-0.784-0.412-1.351-1.236-1.703-0.787-0.34-1.61-0.591-2.452-0.75-0.811-0.149-1.311-0.239-1.5-0.27-1.836-0.34-3.64-0.837-5.391-1.486-1.47-0.547-2.78-1.452-3.81-2.635-1.027-1.189-1.54-2.756-1.54-4.702s0.513-3.601 1.54-4.965c1.027-1.365 2.398-2.385 4.114-3.060 1.791-0.689 3.696-1.033 5.614-1.013 2.459 0 4.587 0.459 6.384 1.378s3.209 2.31 4.236 4.175c0.476 0.789 0.793 1.663 0.932 2.574 0.106 0.8 0.161 1.605 0.162 2.412h-6.607c0-1.459-0.392-2.533-1.175-3.223s-2-1.034-3.648-1.034c-1.324 0-2.351 0.23-3.081 0.689s-1.094 1.081-1.094 1.865c0 0.865 0.486 1.5 1.459 1.905 1.195 0.472 2.429 0.839 3.689 1.094 2.432 0.486 4.33 0.953 5.695 1.399 1.376 0.453 2.602 1.273 3.547 2.371 1 1.135 1.5 2.729 1.5 4.783 0 1.946-0.54 3.621-1.621 5.026s-2.506 2.479-4.276 3.223c-1.818 0.753-3.768 1.132-5.736 1.115-3.918-0.005-6.938-0.932-9.059-2.783z"></path>
</symbol>
<symbol id="icon-Vector-10" viewBox="0 0 25 32">
<path d="M24.374 31.295h-23.493v-30.563h11.9c2.547 0 4.625 0.454 6.236 1.361 1.538 0.837 2.815 2.083 3.689 3.601 0.882 1.536 1.337 3.279 1.317 5.050 0.021 2.223-0.723 4.386-2.108 6.126-1.327 1.748-3.195 3.006-5.313 3.579l7.773 10.847zM2.506 3.41v15.765h11.286l-11.286-15.765zM2.506 29.67h18.795l-6.411-8.914-1.361 0.044h-11.022v8.87zM3.647 2.357l11.944 16.687c1.918-0.383 3.642-1.424 4.874-2.942 1.268-1.495 1.954-3.397 1.932-5.357 0.018-1.545-0.393-3.065-1.186-4.391-0.79-1.317-1.951-2.371-3.337-3.030-1.288-0.644-2.971-0.966-5.050-0.966h-9.178z"></path>
</symbol>
</defs>
</svg>
